<svg version="1.1" preserveAspectRatio="none" xmlns="http://www.w3.org/2000/svg" width="500" height="500" viewBox="0 0 500 500"><rect width="100%" height="100%" fill="#E74C32" fill-opacity="1"/><svg viewBox="199.2491 583.0964 207.2727 292.6536" width="235.84814640927019" height="333" x="132.0759px" y="83.5px" xmlns="http://www.w3.org/2000/svg" xmlns:xlink="http://www.w3.org/1999/xlink" preserveAspectRatio="none"><defs></defs><style>.companyName {fill:#EFEFEF;fill-opacity:1;}.icon1 {fill:#281817;fill-opacity:1;}.icon2 {fill:#EFEFEF;fill-opacity:1;}.icon3 {fill:#DDAC77;fill-opacity:1;}.icon3-str {stroke:#DDAC77;stroke-opacity:1;}</style><g opacity="1" transform="rotate(0 199.2491 755.75)">
<svg width="207.2727" height="120" x="199.2491" y="755.75" version="1.1" preserveAspectRatio="none" viewBox="1 -27.56 48.64 28.16">
  <g transform="matrix(1 0 0 1 0 0)" class="companyName"><path id="id-D6z1nYkh2" d="M13.64 0.60Q7.56 0.60 4.28-3.12Q1-6.84 1-13.64L1-13.64Q1-17.96 2.58-21.10Q4.16-24.24 7.16-25.90Q10.16-27.56 14.28-27.56L14.28-27.56Q18.96-27.56 23.92-25.44L23.92-25.44Q23.56-21.84 22.76-17.48L22.76-17.48L19.72-17.28L16.96-21.32Q15.20-21.84 13.08-21.84L13.08-21.84Q11.48-21.84 10.04-21.56L10.04-21.56Q9.40-20.32 9-18.28Q8.60-16.24 8.60-14.16L8.60-14.16Q8.60-9.72 10.22-7.58Q11.84-5.44 15.36-5.36L15.36-5.36Q16.76-5.36 18.90-5.78Q21.04-6.20 23.08-6.88L23.08-6.88L24.32-2.48Q22.24-1.12 19.30-0.26Q16.36 0.60 13.64 0.60L13.64 0.60Z M38.96 0.60Q32.88 0.60 29.60-3.12Q26.32-6.84 26.32-13.64L26.32-13.64Q26.32-17.96 27.90-21.10Q29.48-24.24 32.48-25.90Q35.48-27.56 39.60-27.56L39.60-27.56Q44.28-27.56 49.24-25.44L49.24-25.44Q48.88-21.84 48.08-17.48L48.08-17.48L45.04-17.28L42.28-21.32Q40.52-21.84 38.40-21.84L38.40-21.84Q36.80-21.84 35.36-21.56L35.36-21.56Q34.72-20.32 34.32-18.28Q33.92-16.24 33.92-14.16L33.92-14.16Q33.92-9.72 35.54-7.58Q37.16-5.44 40.68-5.36L40.68-5.36Q42.08-5.36 44.22-5.78Q46.36-6.20 48.40-6.88L48.40-6.88L49.64-2.48Q47.56-1.12 44.62-0.26Q41.68 0.60 38.96 0.60L38.96 0.60Z"/></g>
</svg>
</g><g opacity="1" transform="rotate(0 199.2491 583.0964)">
<svg width="207.2727" height="132.6536" x="199.2491" y="583.0964" version="1.1" preserveAspectRatio="none" viewBox="15 45.5 170.00144958496094 108.80000305175781">
  <g transform="matrix(1 0 0 1 0 0)" ><g><path d="M174 45.5H64c-6 0-10.9 4.2-10.9 10.1v68.5c0 6 4.9 10.1 10.9 10.1h39.7l-.8 10.7-5.5 7H41.5c2.4-1.9 4-4.9 4-8.1v-3.1c.3.6.8.8 1.9.8 3.2 0 5.7-2.6 5.7-5.7s-2.6-5.7-5.7-5.7c-1.1 0-1.7.4-1.9.8v-10.5H17.6v23.3c0 3.2 1.5 6 3.7 8.1H15v2.5h165.5V152h-40.6l-5.7-7.2-1.6-10.5H174c6 0 11-4.2 11-10.1V55.6c.1-5.9-5-10.1-11-10.1zm-128.5 88c.6-.5 1.2-.7 1.9-.7 1.8 0 3.2 1.4 3.2 3.2s-1.4 3.2-3.2 3.2c-.7 0-1.4-.3-1.9-.7v-5zM34.9 152h-7.2c-4.2 0-7.5-3.9-7.5-8.1v-20.8h22.9v20.8c-.1 4.2-4 8.1-8.2 8.1zm101.2 0H101l3.6-5.1h27.8l3.7 5.1zm-30.7-7.6l.8-10.1H130l1.5 10.1h-26.1zm77.1-20.3c0 4.6-4 7.6-8.5 7.6H64c-4.5 0-8.3-3.1-8.3-7.6v-7.6h126.9v7.6h-.1zm0-10.2H55.6V55.6c0-4.5 3.7-7.6 8.3-7.6h110c4.5 0 8.5 3.1 8.5 7.6v58.3h.1z" data-color="1" class="icon1"></path><path d="M119.1 128.4c2.8 0 5.1-2.2 5.1-5.1 0-2.8-2.3-5.1-5.1-5.1s-5.1 2.2-5.1 5.1c.1 2.8 2.3 5.1 5.1 5.1zm0-7.5c1.4 0 2.5 1.1 2.5 2.5s-1.1 2.5-2.5 2.5-2.5-1.1-2.5-2.5 1.1-2.5 2.5-2.5z" data-color="1" class="icon1"></path><path d="M25.2 115.6c.7 0 1.3-.6 1.3-1.3v-7c0-.7-.6-1.3-1.3-1.3s-1.3.6-1.3 1.3v7c0 .7.6 1.3 1.3 1.3z" data-color="1" class="icon1"></path><path d="M25.2 103.9c.7 0 1.3-.6 1.3-1.3v-1.9c0-.7-.6-1.3-1.3-1.3s-1.3.6-1.3 1.3v1.9c0 .7.6 1.3 1.3 1.3z" data-color="1" class="icon1"></path><path d="M30.7 117.8c.7 0 1.3-.6 1.3-1.3v-13.9c0-.7-.6-1.3-1.3-1.3s-1.3.6-1.3 1.3v13.9c0 .6.5 1.3 1.3 1.3z" data-color="1" class="icon1"></path><path d="M30.7 99.2c.7 0 1.3-.6 1.3-1.3V96c0-.7-.6-1.3-1.3-1.3s-1.3.6-1.3 1.3v1.9c0 .7.5 1.3 1.3 1.3z" data-color="1" class="icon1"></path><path d="M36.1 115.6c.7 0 1.3-.6 1.3-1.3v-7c0-.7-.6-1.3-1.3-1.3s-1.3.6-1.3 1.3v7c0 .7.6 1.3 1.3 1.3z" data-color="1" class="icon1"></path><path d="M36.1 103.9c.7 0 1.3-.6 1.3-1.3v-1.9c0-.7-.6-1.3-1.3-1.3s-1.3.6-1.3 1.3v1.9c0 .7.6 1.3 1.3 1.3z" data-color="1" class="icon1"></path></g></g>
</svg>
</g></svg></svg>